<svg width="22" height="23" viewBox="0 0 22 23" fill="none" xmlns="http://www.w3.org/2000/svg">
<path d="M4.58946 8.75285C4.83257 8.75285 5.06573 8.84943 5.23764 9.02133C5.40955 9.19324 5.50612 9.4264 5.50612 9.66951C6.94634 9.66739 8.34502 10.1519 9.47529 11.0445H11.4645C12.6855 11.0445 13.7836 11.5762 14.539 12.4195H17.4228C18.2893 12.4193 19.1381 12.6647 19.8708 13.1272C20.6035 13.5898 21.19 14.2506 21.5625 15.0329C19.3945 17.8938 15.8846 19.7528 11.9228 19.7528C9.36529 19.7528 7.20196 19.2001 5.45021 18.233C5.38608 18.41 5.26893 18.5629 5.11472 18.6708C4.96052 18.7788 4.77677 18.8365 4.58854 18.8362H1.83854C1.59543 18.8362 1.36227 18.7396 1.19036 18.5677C1.01845 18.3958 0.921875 18.1626 0.921875 17.9195V9.66951C0.921875 9.4264 1.01845 9.19324 1.19036 9.02133C1.36227 8.84943 1.59543 8.75285 1.83854 8.75285H4.58854H4.58946ZM5.50612 11.5028V16.1063L5.54738 16.1357C7.19187 17.2907 9.33596 17.9195 11.9228 17.9195C14.6765 17.9195 17.2376 16.8598 19.1049 15.0503L19.2268 14.9284L19.1168 14.8368C18.6839 14.4978 18.1592 14.2966 17.6107 14.2593L17.4228 14.2528H15.4868C15.5537 14.548 15.5895 14.8542 15.5895 15.1695V16.0862H7.33946V14.2528L13.5636 14.2519L13.5325 14.1795C13.3567 13.8126 13.0864 13.4991 12.7494 13.2711C12.4124 13.0432 12.0208 12.909 11.6148 12.8824L11.4645 12.8778H8.77862C8.35245 12.442 7.84336 12.0957 7.28134 11.8596C6.71932 11.6235 6.11574 11.5022 5.50612 11.5028ZM3.67279 10.5862H2.75613V17.0028H3.67279V10.5862ZM16.5061 5.08618C16.8673 5.08618 17.2249 5.15731 17.5585 5.29551C17.8921 5.43371 18.1953 5.63628 18.4507 5.89164C18.706 6.147 18.9086 6.45016 19.0468 6.7838C19.185 7.11745 19.2561 7.47505 19.2561 7.83618C19.2561 8.19732 19.185 8.55492 19.0468 8.88856C18.9086 9.22221 18.706 9.52536 18.4507 9.78072C18.1953 10.0361 17.8921 10.2386 17.5585 10.3768C17.2249 10.515 16.8673 10.5862 16.5061 10.5862C15.7768 10.5862 15.0773 10.2964 14.5616 9.78072C14.0459 9.265 13.7561 8.56553 13.7561 7.83618C13.7561 7.10684 14.0459 6.40736 14.5616 5.89164C15.0773 5.37591 15.7768 5.08618 16.5061 5.08618ZM16.5061 6.91951C16.263 6.91951 16.0299 7.01609 15.8579 7.188C15.686 7.35991 15.5895 7.59307 15.5895 7.83618C15.5895 8.0793 15.686 8.31245 15.8579 8.48436C16.0299 8.65627 16.263 8.75285 16.5061 8.75285C16.7492 8.75285 16.9824 8.65627 17.1543 8.48436C17.3262 8.31245 17.4228 8.0793 17.4228 7.83618C17.4228 7.59307 17.3262 7.35991 17.1543 7.188C16.9824 7.01609 16.7492 6.91951 16.5061 6.91951ZM10.0895 2.33618C10.4506 2.33618 10.8082 2.40731 11.1418 2.54551C11.4755 2.68371 11.7786 2.88628 12.034 3.14164C12.2894 3.397 12.4919 3.70016 12.6301 4.0338C12.7683 4.36745 12.8395 4.72505 12.8395 5.08618C12.8395 5.44732 12.7683 5.80492 12.6301 6.13856C12.4919 6.47221 12.2894 6.77536 12.034 7.03073C11.7786 7.28609 11.4755 7.48865 11.1418 7.62685C10.8082 7.76505 10.4506 7.83618 10.0895 7.83618C9.36011 7.83618 8.66064 7.54645 8.14491 7.03073C7.62919 6.515 7.33946 5.81553 7.33946 5.08618C7.33946 4.35684 7.62919 3.65736 8.14491 3.14164C8.66064 2.62591 9.36011 2.33618 10.0895 2.33618ZM10.0895 4.16951C9.84634 4.16951 9.61319 4.26609 9.44128 4.438C9.26937 4.60991 9.17279 4.84307 9.17279 5.08618C9.17279 5.3293 9.26937 5.56245 9.44128 5.73436C9.61319 5.90627 9.84634 6.00285 10.0895 6.00285C10.3326 6.00285 10.5657 5.90627 10.7376 5.73436C10.9095 5.56245 11.0061 5.3293 11.0061 5.08618C11.0061 4.84307 10.9095 4.60991 10.7376 4.438C10.5657 4.26609 10.3326 4.16951 10.0895 4.16951Z" fill="#637381"/>
</svg>
