<svg xmlns="http://www.w3.org/2000/svg" fill="none" viewBox="0 0 24 24"><g clip-path="url(#a)"><path fill="#57537A" d="M21.155 3.272 18.871.913c-.2805-.288034-.6157-.51716-.9859-.673939C17.5149.0822824 17.1171.00100643 16.715 0H12c-1.1522.00145452-2.26868.40009-3.16125 1.12872C7.94618 1.85735 7.3321 2.87141 7.1 4H7c-1.32559.00159-2.59644.52888-3.53378 1.46622C2.52888 6.40356 2.00159 7.67441 2 9v10c.00159 1.3256.52888 2.5964 1.46622 3.5338C4.40356 23.4711 5.67441 23.9984 7 24h6c1.3256-.0016 2.5964-.5289 3.5338-1.4662C17.4711 21.5964 17.9984 20.3256 18 19v-.1c1.1286-.2321 2.1427-.8462 2.8713-1.7387C21.5999 16.2687 21.9985 15.1522 22 14V5.36c.0015-.77958-.3017-1.52888-.845-2.088ZM13 22H7c-.79565 0-1.55871-.3161-2.12132-.8787C4.31607 20.5587 4 19.7956 4 19V9c0-.79565.31607-1.55871.87868-2.12132C5.44129 6.31607 6.20435 6 7 6v8c.00159 1.3256.52888 2.5964 1.46622 3.5338C9.40356 18.4711 10.6744 18.9984 12 19h4c0 .7956-.3161 1.5587-.8787 2.1213C14.5587 21.6839 13.7957 22 13 22Zm4-5h-5c-.7956 0-1.5587-.3161-2.12132-.8787C9.31607 15.5587 9 14.7956 9 14V5c0-.79565.31607-1.55871.87868-2.12132C10.4413 2.31607 11.2044 2 12 2h4v2c0 .53043.2107 1.03914.5858 1.41421C16.9609 5.78929 17.4696 6 18 6h2v8c0 .7956-.3161 1.5587-.8787 2.1213C18.5587 16.6839 17.7957 17 17 17Z"/></g><defs><clipPath id="a"><path fill="#fff" d="M0 0h24v24H0z"/></clipPath></defs></svg>