<svg width="267" height="190" viewBox="0 0 267 190" fill="none" xmlns="http://www.w3.org/2000/svg">
<g clip-path="url(#clip0_160_13645)">
<g opacity="0.15">
<path d="M1.21608e-05 38.7401L103.667 38.7401V150.037L1.21608e-05 38.7401Z" fill="url(#paint0_linear_160_13645)"/>
<path d="M311 94.9448C311 125.679 287.793 150.593 259.167 150.593C230.54 150.593 207.333 125.679 207.333 94.9448C207.333 64.2111 230.54 39.2965 259.167 39.2965C287.793 39.2965 311 64.2111 311 94.9448Z" fill="url(#paint1_linear_160_13645)"/>
<path d="M207.333 150.595V261.891C264.586 261.891 310.999 212.062 310.999 150.595H207.333Z" fill="url(#paint2_linear_160_13645)"/>
<path d="M207.333 -71.9984V39.2982C264.587 39.2982 311 -10.531 311 -71.9984L207.333 -71.9984Z" fill="url(#paint3_linear_160_13645)"/>
<path d="M0 150.703L9.06282e-06 262C57.2535 262 103.667 212.171 103.667 150.703L0 150.703Z" fill="url(#paint4_linear_160_13645)"/>
<path d="M0 -71.8897L9.06282e-06 39.4069C57.2535 39.4069 103.667 -10.4223 103.667 -71.8897L0 -71.8897Z" fill="url(#paint5_linear_160_13645)"/>
<path d="M207.333 150.593V39.2965C150.08 39.2965 103.667 89.1257 103.667 150.593H207.333Z" fill="url(#paint6_linear_160_13645)"/>
<path d="M207.333 261.89H103.667V150.593L207.333 261.89Z" fill="url(#paint7_linear_160_13645)"/>
<path d="M207.333 39.2965L103.667 39.2966L103.667 -72L207.333 39.2965Z" fill="url(#paint8_linear_160_13645)"/>
</g>
</g>
<defs>
<linearGradient id="paint0_linear_160_13645" x1="311" y1="101" x2="-7.05206e-06" y2="101" gradientUnits="userSpaceOnUse">
<stop stop-color="white"/>
<stop offset="0.46" stop-color="#CCCCCC" stop-opacity="0.5"/>
<stop offset="1" stop-color="#999999" stop-opacity="0"/>
</linearGradient>
<linearGradient id="paint1_linear_160_13645" x1="311" y1="101" x2="-7.05206e-06" y2="101" gradientUnits="userSpaceOnUse">
<stop stop-color="white"/>
<stop offset="0.46" stop-color="#CCCCCC" stop-opacity="0.5"/>
<stop offset="1" stop-color="#999999" stop-opacity="0"/>
</linearGradient>
<linearGradient id="paint2_linear_160_13645" x1="311" y1="101" x2="-7.05206e-06" y2="101" gradientUnits="userSpaceOnUse">
<stop stop-color="white"/>
<stop offset="0.46" stop-color="#CCCCCC" stop-opacity="0.5"/>
<stop offset="1" stop-color="#999999" stop-opacity="0"/>
</linearGradient>
<linearGradient id="paint3_linear_160_13645" x1="311" y1="101" x2="-7.05206e-06" y2="101" gradientUnits="userSpaceOnUse">
<stop stop-color="white"/>
<stop offset="0.46" stop-color="#CCCCCC" stop-opacity="0.5"/>
<stop offset="1" stop-color="#999999" stop-opacity="0"/>
</linearGradient>
<linearGradient id="paint4_linear_160_13645" x1="311" y1="101" x2="-7.05206e-06" y2="101" gradientUnits="userSpaceOnUse">
<stop stop-color="white"/>
<stop offset="0.46" stop-color="#CCCCCC" stop-opacity="0.5"/>
<stop offset="1" stop-color="#999999" stop-opacity="0"/>
</linearGradient>
<linearGradient id="paint5_linear_160_13645" x1="311" y1="101" x2="-7.05206e-06" y2="101" gradientUnits="userSpaceOnUse">
<stop stop-color="white"/>
<stop offset="0.46" stop-color="#CCCCCC" stop-opacity="0.5"/>
<stop offset="1" stop-color="#999999" stop-opacity="0"/>
</linearGradient>
<linearGradient id="paint6_linear_160_13645" x1="311" y1="101" x2="-7.05206e-06" y2="101" gradientUnits="userSpaceOnUse">
<stop stop-color="white"/>
<stop offset="0.46" stop-color="#CCCCCC" stop-opacity="0.5"/>
<stop offset="1" stop-color="#999999" stop-opacity="0"/>
</linearGradient>
<linearGradient id="paint7_linear_160_13645" x1="311" y1="101" x2="-7.05206e-06" y2="101" gradientUnits="userSpaceOnUse">
<stop stop-color="white"/>
<stop offset="0.46" stop-color="#CCCCCC" stop-opacity="0.5"/>
<stop offset="1" stop-color="#999999" stop-opacity="0"/>
</linearGradient>
<linearGradient id="paint8_linear_160_13645" x1="311" y1="101" x2="-7.05206e-06" y2="101" gradientUnits="userSpaceOnUse">
<stop stop-color="white"/>
<stop offset="0.46" stop-color="#CCCCCC" stop-opacity="0.5"/>
<stop offset="1" stop-color="#999999" stop-opacity="0"/>
</linearGradient>
<clipPath id="clip0_160_13645">
<rect width="267" height="190" fill="white"/>
</clipPath>
</defs>
</svg>
