<svg width="136" height="43" viewBox="0 0 136 43" fill="none" xmlns="http://www.w3.org/2000/svg">
<path d="M23.8913 5.18C23.8913 5.55333 23.8013 5.90333 23.6213 6.23C23.448 6.55667 23.1713 6.82 22.7913 7.02C22.418 7.22 21.9447 7.32 21.3713 7.32H20.2013V10H18.8013V3.02H21.3713C21.9113 3.02 22.3713 3.11333 22.7513 3.3C23.1313 3.48667 23.4147 3.74333 23.6013 4.07C23.7947 4.39667 23.8913 4.76667 23.8913 5.18ZM21.3113 6.19C21.698 6.19 21.9847 6.10333 22.1713 5.93C22.358 5.75 22.4513 5.5 22.4513 5.18C22.4513 4.5 22.0713 4.16 21.3113 4.16H20.2013V6.19H21.3113ZM27.8453 10.09C27.312 10.09 26.832 9.97333 26.4053 9.74C25.9786 9.5 25.642 9.16333 25.3953 8.73C25.1553 8.29667 25.0353 7.79667 25.0353 7.23C25.0353 6.66333 25.1586 6.16333 25.4053 5.73C25.6586 5.29667 26.002 4.96333 26.4353 4.73C26.8686 4.49 27.352 4.37 27.8853 4.37C28.4186 4.37 28.902 4.49 29.3353 4.73C29.7686 4.96333 30.1086 5.29667 30.3553 5.73C30.6086 6.16333 30.7353 6.66333 30.7353 7.23C30.7353 7.79667 30.6053 8.29667 30.3453 8.73C30.092 9.16333 29.7453 9.5 29.3053 9.74C28.872 9.97333 28.3853 10.09 27.8453 10.09ZM27.8453 8.87C28.0986 8.87 28.3353 8.81 28.5553 8.69C28.782 8.56333 28.962 8.37667 29.0953 8.13C29.2286 7.88333 29.2953 7.58333 29.2953 7.23C29.2953 6.70333 29.1553 6.3 28.8753 6.02C28.602 5.73333 28.2653 5.59 27.8653 5.59C27.4653 5.59 27.1286 5.73333 26.8553 6.02C26.5886 6.3 26.4553 6.70333 26.4553 7.23C26.4553 7.75667 26.5853 8.16333 26.8453 8.45C27.112 8.73 27.4453 8.87 27.8453 8.87ZM39.9423 4.46L38.3223 10H36.8123L35.8023 6.13L34.7923 10H33.2723L31.6423 4.46H33.0623L34.0423 8.68L35.1023 4.46H36.5823L37.6223 8.67L38.6023 4.46H39.9423ZM46.3498 7.11C46.3498 7.31 46.3364 7.49 46.3098 7.65H42.2598C42.2931 8.05 42.4331 8.36333 42.6798 8.59C42.9264 8.81667 43.2298 8.93 43.5898 8.93C44.1098 8.93 44.4798 8.70667 44.6998 8.26H46.2098C46.0498 8.79333 45.7431 9.23333 45.2898 9.58C44.8364 9.92 44.2798 10.09 43.6198 10.09C43.0864 10.09 42.6064 9.97333 42.1798 9.74C41.7598 9.5 41.4298 9.16333 41.1898 8.73C40.9564 8.29667 40.8398 7.79667 40.8398 7.23C40.8398 6.65667 40.9564 6.15333 41.1898 5.72C41.4231 5.28667 41.7498 4.95333 42.1698 4.72C42.5898 4.48667 43.0731 4.37 43.6198 4.37C44.1464 4.37 44.6164 4.48333 45.0298 4.71C45.4498 4.93667 45.7731 5.26 45.9998 5.68C46.2331 6.09333 46.3498 6.57 46.3498 7.11ZM44.8998 6.71C44.8931 6.35 44.7631 6.06333 44.5098 5.85C44.2564 5.63 43.9464 5.52 43.5798 5.52C43.2331 5.52 42.9398 5.62667 42.6998 5.84C42.4664 6.04667 42.3231 6.33667 42.2698 6.71H44.8998ZM49.2716 5.32C49.4516 5.02667 49.685 4.79667 49.9716 4.63C50.265 4.46333 50.5983 4.38 50.9716 4.38V5.85H50.6016C50.1616 5.85 49.8283 5.95333 49.6016 6.16C49.3816 6.36667 49.2716 6.72667 49.2716 7.24V10H47.8716V4.46H49.2716V5.32ZM57.5646 7.11C57.5646 7.31 57.5513 7.49 57.5246 7.65H53.4746C53.5079 8.05 53.6479 8.36333 53.8946 8.59C54.1413 8.81667 54.4446 8.93 54.8046 8.93C55.3246 8.93 55.6946 8.70667 55.9146 8.26H57.4246C57.2646 8.79333 56.9579 9.23333 56.5046 9.58C56.0513 9.92 55.4946 10.09 54.8346 10.09C54.3013 10.09 53.8213 9.97333 53.3946 9.74C52.9746 9.5 52.6446 9.16333 52.4046 8.73C52.1713 8.29667 52.0546 7.79667 52.0546 7.23C52.0546 6.65667 52.1713 6.15333 52.4046 5.72C52.6379 5.28667 52.9646 4.95333 53.3846 4.72C53.8046 4.48667 54.2879 4.37 54.8346 4.37C55.3613 4.37 55.8313 4.48333 56.2446 4.71C56.6646 4.93667 56.9879 5.26 57.2146 5.68C57.4479 6.09333 57.5646 6.57 57.5646 7.11ZM56.1146 6.71C56.1079 6.35 55.9779 6.06333 55.7246 5.85C55.4713 5.63 55.1613 5.52 54.7946 5.52C54.4479 5.52 54.1546 5.62667 53.9146 5.84C53.6813 6.04667 53.5379 6.33667 53.4846 6.71H56.1146ZM58.7265 7.21C58.7265 6.65 58.8365 6.15333 59.0565 5.72C59.2832 5.28667 59.5898 4.95333 59.9765 4.72C60.3632 4.48667 60.7932 4.37 61.2665 4.37C61.6265 4.37 61.9698 4.45 62.2965 4.61C62.6232 4.76333 62.8832 4.97 63.0765 5.23V2.6H64.4965V10H63.0765V9.18C62.9032 9.45333 62.6598 9.67333 62.3465 9.84C62.0332 10.0067 61.6698 10.09 61.2565 10.09C60.7898 10.09 60.3632 9.97 59.9765 9.73C59.5898 9.49 59.2832 9.15333 59.0565 8.72C58.8365 8.28 58.7265 7.77667 58.7265 7.21ZM63.0865 7.23C63.0865 6.89 63.0198 6.6 62.8865 6.36C62.7532 6.11333 62.5732 5.92667 62.3465 5.8C62.1198 5.66667 61.8765 5.6 61.6165 5.6C61.3565 5.6 61.1165 5.66333 60.8965 5.79C60.6765 5.91667 60.4965 6.10333 60.3565 6.35C60.2232 6.59 60.1565 6.87667 60.1565 7.21C60.1565 7.54333 60.2232 7.83667 60.3565 8.09C60.4965 8.33667 60.6765 8.52667 60.8965 8.66C61.1232 8.79333 61.3632 8.86 61.6165 8.86C61.8765 8.86 62.1198 8.79667 62.3465 8.67C62.5732 8.53667 62.7532 8.35 62.8865 8.11C63.0198 7.86333 63.0865 7.57 63.0865 7.23ZM70.6466 5.27C70.8266 5.00333 71.0733 4.78667 71.3866 4.62C71.7066 4.45333 72.07 4.37 72.4766 4.37C72.95 4.37 73.3766 4.48667 73.7566 4.72C74.1433 4.95333 74.4466 5.28667 74.6666 5.72C74.8933 6.14667 75.0066 6.64333 75.0066 7.21C75.0066 7.77667 74.8933 8.28 74.6666 8.72C74.4466 9.15333 74.1433 9.49 73.7566 9.73C73.3766 9.97 72.95 10.09 72.4766 10.09C72.0633 10.09 71.7 10.01 71.3866 9.85C71.08 9.68333 70.8333 9.47 70.6466 9.21V10H69.2466V2.6H70.6466V5.27ZM73.5766 7.21C73.5766 6.87667 73.5066 6.59 73.3666 6.35C73.2333 6.10333 73.0533 5.91667 72.8266 5.79C72.6066 5.66333 72.3666 5.6 72.1066 5.6C71.8533 5.6 71.6133 5.66667 71.3866 5.8C71.1666 5.92667 70.9866 6.11333 70.8466 6.36C70.7133 6.60667 70.6466 6.89667 70.6466 7.23C70.6466 7.56333 70.7133 7.85333 70.8466 8.1C70.9866 8.34667 71.1666 8.53667 71.3866 8.67C71.6133 8.79667 71.8533 8.86 72.1066 8.86C72.3666 8.86 72.6066 8.79333 72.8266 8.66C73.0533 8.52667 73.2333 8.33667 73.3666 8.09C73.5066 7.84333 73.5766 7.55 73.5766 7.21ZM81.824 4.46L78.394 12.62H76.904L78.104 9.86L75.884 4.46H77.454L78.884 8.33L80.334 4.46H81.824Z" fill="#57537A"/>
<path d="M18 34.7065C18 30.2069 21.2683 26.8526 25.7999 26.8526C28.8709 26.8526 31.5231 28.5865 32.4755 31.1031L29.7098 32.3663C29.3956 31.5903 28.8544 30.9278 28.1566 30.466C27.4589 30.0041 26.6366 29.7638 25.7999 29.7781C23.2106 29.7781 21.2992 31.8493 21.2992 34.7231C21.2992 37.5968 23.1996 39.6933 25.7999 39.6933C26.641 39.7044 27.4655 39.4597 28.1644 38.9901C28.8632 38.5216 29.4022 37.8514 29.7098 37.0677L32.4755 38.3827C31.5539 40.8111 28.8963 42.6288 25.7999 42.6288C21.2981 42.6387 18 39.2326 18 34.7065Z" fill="#121012"/>
<path d="M52.8958 27.1888H55.915V29.0627C56.7539 27.6076 58.2927 26.8515 60.1357 26.8515C61.0826 26.8228 62.0196 27.0477 62.8507 27.5029C63.6808 27.9582 64.3752 28.6273 64.8591 29.4408C65.3375 28.6229 66.0298 27.9505 66.8609 27.4941C67.6921 27.0389 68.6301 26.8162 69.5781 26.8515C70.3277 26.8349 71.0717 26.9716 71.7662 27.2527C72.4606 27.5338 73.09 27.9538 73.6169 28.4873C74.1427 29.0208 74.555 29.6557 74.8262 30.3535C75.0984 31.0512 75.2241 31.7975 75.1976 32.546V42.3212H72.0384V33.4003C72.0384 31.1637 70.7543 29.7759 68.8539 29.7759C66.9535 29.7759 65.612 31.1427 65.612 33.4003V42.3102H62.5046V33.4003C62.5046 31.1637 61.1896 29.7759 59.2936 29.7759C57.3976 29.7759 56.0771 31.1427 56.0771 33.4003V42.3102H52.9179L52.8958 27.1888Z" fill="#121012"/>
<path d="M80.8668 33.1534H88.8266C88.8144 32.6617 88.7042 32.1778 88.5025 31.7292C88.3008 31.2806 88.0131 30.876 87.6548 30.5387C87.2966 30.2014 86.8755 29.9391 86.4147 29.766C85.954 29.5929 85.4645 29.5125 84.9729 29.5301C82.9325 29.5092 81.2548 30.8507 80.8657 33.139V33.1534H80.8668ZM77.5114 34.7065C77.5114 30.1816 80.7279 26.8526 84.974 26.8526C89.5265 26.8526 92.1831 30.2642 92.1831 34.1741C92.1919 34.6712 92.1456 35.1684 92.0431 35.6545H80.8106C80.8723 36.6047 81.2372 37.5108 81.8512 38.2383C82.4652 38.9669 83.2963 39.4795 84.2222 39.7011C85.1482 39.9226 86.1215 39.8422 86.9989 39.4707C87.8764 39.0992 88.6116 38.4566 89.0966 37.6375L91.6859 38.8953C90.7644 41.0437 88.3041 42.6387 85.2275 42.6387C80.696 42.6387 77.5114 39.1753 77.5114 34.7065Z" fill="#121012"/>
<path d="M96.3422 37.3575V30.036H93.6901V27.1887H96.3422V22.9999H99.5014V27.1887H102.935V30.036H99.4959V37.2175C99.4959 38.7706 100.195 39.6767 102.012 39.6767C102.36 39.6745 102.706 39.6469 103.049 39.594V42.3024C102.485 42.3983 101.915 42.4534 101.344 42.4677C98.1599 42.4677 96.3422 40.5982 96.3422 37.3575Z" fill="#121012"/>
<path d="M110.563 40.1332C111.12 40.1607 111.677 40.0725 112.2 39.8752C112.722 39.6779 113.198 39.377 113.6 38.9879C114.001 38.5999 114.317 38.1336 114.531 37.6177C114.745 37.1018 114.85 36.5485 114.841 35.9907V35.1827L110.651 35.908C108.973 36.188 108.217 36.9949 108.217 38.1711C108.217 39.3461 109.196 40.1332 110.563 40.1332ZM104.923 38.31C104.923 35.8761 106.545 34.0903 110.035 33.505L114.841 32.718V32.1326C114.841 30.6522 113.639 29.5907 111.821 29.5907C111.059 29.5764 110.309 29.7924 109.672 30.2113C109.035 30.6302 108.538 31.231 108.248 31.9364L105.622 30.6269C106.487 28.4212 109.029 26.8526 111.904 26.8526C115.483 26.8526 118 29.0065 118 32.1337V42.3025H114.981V40.5421C114.369 41.2355 113.609 41.7844 112.757 42.1471C111.906 42.5097 110.985 42.6784 110.06 42.6398C106.989 42.6387 104.923 40.9356 104.923 38.31Z" fill="#121012"/>
<path d="M47.0019 34.7328C47.0019 31.8856 45.0188 29.7879 42.392 29.7879C39.7663 29.7879 37.7833 31.8591 37.7833 34.7328C37.7833 37.6065 39.741 39.7031 42.392 39.7031C45.0431 39.7031 47.0019 37.5801 47.0019 34.7328ZM34.4841 34.7328C34.4874 33.1731 34.9526 31.6497 35.8212 30.3545C36.6898 29.0593 37.9222 28.0506 39.364 27.4554C40.8058 26.8602 42.3909 26.7047 43.9209 27.0101C45.4509 27.3154 46.8552 28.0661 47.9587 29.1684C49.0621 30.2707 49.8127 31.6761 50.1181 33.205C50.4234 34.7339 50.268 36.319 49.6727 37.7608C49.0775 39.2016 48.0678 40.435 46.7726 41.3026C45.4774 42.1712 43.9529 42.6352 42.3931 42.6385C41.3481 42.6628 40.3087 42.4754 39.3375 42.0874C38.3664 41.6983 37.4846 41.1174 36.746 40.3777C36.0064 39.6381 35.4254 38.7573 35.0363 37.7862C34.6472 36.8173 34.4598 35.7778 34.4841 34.7328Z" fill="#121012"/>
<rect x="125.333" y="13" width="10.6666" height="10.6666" fill="url(#paint0_radial_1943_16396)"/>
<rect x="120" y="23.6666" width="5.3333" height="5.3333" fill="url(#paint1_linear_1943_16396)"/>
<defs>
<radialGradient id="paint0_radial_1943_16396" cx="0" cy="0" r="1" gradientUnits="userSpaceOnUse" gradientTransform="translate(125.556 23.4444) rotate(-45) scale(14.7706)">
<stop stop-color="#FF63AF"/>
<stop offset="0.135417" stop-color="#FF63AF"/>
<stop offset="0.296875" stop-color="#FF7E87"/>
<stop offset="0.473958" stop-color="#FE985F"/>
<stop offset="1" stop-color="#F89857"/>
</radialGradient>
<linearGradient id="paint1_linear_1943_16396" x1="120" y1="28.9999" x2="125.778" y2="23.6666" gradientUnits="userSpaceOnUse">
<stop stop-color="#F863AA"/>
<stop offset="1" stop-color="#FF63B0"/>
</linearGradient>
</defs>
</svg>
